<mxfile host="app.diagrams.net" modified="2023-07-03T12:46:12.286Z" agent="Mozilla/5.0 (Windows NT 10.0; Win64; x64) AppleWebKit/537.36 (KHTML, like Gecko) Chrome/114.0.0.0 Safari/537.36" etag="Z4CUFpMZLZZPQkwEN223" version="21.5.2" type="github">
  <diagram id="C5RBs43oDa-KdzZeNtuy" name="Page-1">
    <mxGraphModel dx="3217" dy="2392" grid="1" gridSize="10" guides="1" tooltips="1" connect="1" arrows="1" fold="1" page="1" pageScale="1" pageWidth="827" pageHeight="1169" math="0" shadow="0">
      <root>
        <mxCell id="WIyWlLk6GJQsqaUBKTNV-0" />
        <mxCell id="WIyWlLk6GJQsqaUBKTNV-1" parent="WIyWlLk6GJQsqaUBKTNV-0" />
        <mxCell id="wrxFYw_ACkEng3B3rdSg-15" value="" style="edgeStyle=orthogonalEdgeStyle;rounded=0;orthogonalLoop=1;jettySize=auto;html=1;" edge="1" parent="WIyWlLk6GJQsqaUBKTNV-1" source="wrxFYw_ACkEng3B3rdSg-1" target="wrxFYw_ACkEng3B3rdSg-14">
          <mxGeometry relative="1" as="geometry" />
        </mxCell>
        <mxCell id="wrxFYw_ACkEng3B3rdSg-1" value="开始" style="strokeWidth=2;html=1;shape=mxgraph.flowchart.terminator;whiteSpace=wrap;" vertex="1" parent="WIyWlLk6GJQsqaUBKTNV-1">
          <mxGeometry x="210" y="-120" width="100" height="60" as="geometry" />
        </mxCell>
        <mxCell id="wrxFYw_ACkEng3B3rdSg-17" value="" style="edgeStyle=orthogonalEdgeStyle;rounded=0;orthogonalLoop=1;jettySize=auto;html=1;" edge="1" parent="WIyWlLk6GJQsqaUBKTNV-1" source="wrxFYw_ACkEng3B3rdSg-14" target="wrxFYw_ACkEng3B3rdSg-16">
          <mxGeometry relative="1" as="geometry" />
        </mxCell>
        <mxCell id="wrxFYw_ACkEng3B3rdSg-14" value="获取蓝牙列表" style="whiteSpace=wrap;html=1;strokeWidth=2;" vertex="1" parent="WIyWlLk6GJQsqaUBKTNV-1">
          <mxGeometry x="200" y="20" width="120" height="60" as="geometry" />
        </mxCell>
        <mxCell id="wrxFYw_ACkEng3B3rdSg-119" style="edgeStyle=orthogonalEdgeStyle;rounded=0;orthogonalLoop=1;jettySize=auto;html=1;entryX=0.5;entryY=0;entryDx=0;entryDy=0;" edge="1" parent="WIyWlLk6GJQsqaUBKTNV-1" source="wrxFYw_ACkEng3B3rdSg-16" target="wrxFYw_ACkEng3B3rdSg-18">
          <mxGeometry relative="1" as="geometry" />
        </mxCell>
        <mxCell id="wrxFYw_ACkEng3B3rdSg-16" value="设定30秒定时" style="whiteSpace=wrap;html=1;strokeWidth=2;" vertex="1" parent="WIyWlLk6GJQsqaUBKTNV-1">
          <mxGeometry x="200" y="160" width="120" height="60" as="geometry" />
        </mxCell>
        <mxCell id="wrxFYw_ACkEng3B3rdSg-21" value="" style="edgeStyle=orthogonalEdgeStyle;rounded=0;orthogonalLoop=1;jettySize=auto;html=1;" edge="1" parent="WIyWlLk6GJQsqaUBKTNV-1" source="wrxFYw_ACkEng3B3rdSg-18" target="wrxFYw_ACkEng3B3rdSg-20">
          <mxGeometry relative="1" as="geometry" />
        </mxCell>
        <mxCell id="wrxFYw_ACkEng3B3rdSg-23" value="" style="edgeStyle=orthogonalEdgeStyle;rounded=0;orthogonalLoop=1;jettySize=auto;html=1;" edge="1" parent="WIyWlLk6GJQsqaUBKTNV-1" source="wrxFYw_ACkEng3B3rdSg-18" target="wrxFYw_ACkEng3B3rdSg-22">
          <mxGeometry relative="1" as="geometry" />
        </mxCell>
        <mxCell id="wrxFYw_ACkEng3B3rdSg-18" value="停止蓝牙扫描" style="whiteSpace=wrap;html=1;strokeWidth=2;" vertex="1" parent="WIyWlLk6GJQsqaUBKTNV-1">
          <mxGeometry x="200" y="330" width="120" height="60" as="geometry" />
        </mxCell>
        <mxCell id="wrxFYw_ACkEng3B3rdSg-25" value="" style="edgeStyle=orthogonalEdgeStyle;rounded=0;orthogonalLoop=1;jettySize=auto;html=1;" edge="1" parent="WIyWlLk6GJQsqaUBKTNV-1" source="wrxFYw_ACkEng3B3rdSg-20" target="wrxFYw_ACkEng3B3rdSg-24">
          <mxGeometry relative="1" as="geometry" />
        </mxCell>
        <mxCell id="wrxFYw_ACkEng3B3rdSg-27" value="" style="edgeStyle=orthogonalEdgeStyle;rounded=0;orthogonalLoop=1;jettySize=auto;html=1;" edge="1" parent="WIyWlLk6GJQsqaUBKTNV-1" source="wrxFYw_ACkEng3B3rdSg-20" target="wrxFYw_ACkEng3B3rdSg-26">
          <mxGeometry relative="1" as="geometry" />
        </mxCell>
        <mxCell id="wrxFYw_ACkEng3B3rdSg-20" value="进行AirKiss连接" style="whiteSpace=wrap;html=1;strokeWidth=2;" vertex="1" parent="WIyWlLk6GJQsqaUBKTNV-1">
          <mxGeometry x="400" y="330" width="120" height="60" as="geometry" />
        </mxCell>
        <mxCell id="wrxFYw_ACkEng3B3rdSg-57" value="" style="edgeStyle=orthogonalEdgeStyle;rounded=0;orthogonalLoop=1;jettySize=auto;html=1;" edge="1" parent="WIyWlLk6GJQsqaUBKTNV-1" source="wrxFYw_ACkEng3B3rdSg-22" target="wrxFYw_ACkEng3B3rdSg-56">
          <mxGeometry relative="1" as="geometry" />
        </mxCell>
        <mxCell id="wrxFYw_ACkEng3B3rdSg-22" value="获取到蓝牙设备列表" style="whiteSpace=wrap;html=1;strokeWidth=2;" vertex="1" parent="WIyWlLk6GJQsqaUBKTNV-1">
          <mxGeometry x="200" y="470" width="120" height="60" as="geometry" />
        </mxCell>
        <mxCell id="wrxFYw_ACkEng3B3rdSg-45" style="edgeStyle=orthogonalEdgeStyle;rounded=0;orthogonalLoop=1;jettySize=auto;html=1;entryX=0.5;entryY=0;entryDx=0;entryDy=0;" edge="1" parent="WIyWlLk6GJQsqaUBKTNV-1" source="wrxFYw_ACkEng3B3rdSg-24">
          <mxGeometry relative="1" as="geometry">
            <mxPoint x="1130" y="769.9999999999998" as="targetPoint" />
          </mxGeometry>
        </mxCell>
        <mxCell id="wrxFYw_ACkEng3B3rdSg-24" value="设置30秒定时" style="whiteSpace=wrap;html=1;strokeWidth=2;" vertex="1" parent="WIyWlLk6GJQsqaUBKTNV-1">
          <mxGeometry x="600" y="330" width="120" height="60" as="geometry" />
        </mxCell>
        <mxCell id="wrxFYw_ACkEng3B3rdSg-29" value="" style="edgeStyle=orthogonalEdgeStyle;rounded=0;orthogonalLoop=1;jettySize=auto;html=1;" edge="1" parent="WIyWlLk6GJQsqaUBKTNV-1" source="wrxFYw_ACkEng3B3rdSg-26" target="wrxFYw_ACkEng3B3rdSg-28">
          <mxGeometry relative="1" as="geometry" />
        </mxCell>
        <mxCell id="wrxFYw_ACkEng3B3rdSg-26" value="将wifi账号和密码编码以UDP的方式广播发送出去" style="whiteSpace=wrap;html=1;strokeWidth=2;" vertex="1" parent="WIyWlLk6GJQsqaUBKTNV-1">
          <mxGeometry x="400" y="470" width="120" height="60" as="geometry" />
        </mxCell>
        <mxCell id="wrxFYw_ACkEng3B3rdSg-31" value="" style="edgeStyle=orthogonalEdgeStyle;rounded=0;orthogonalLoop=1;jettySize=auto;html=1;" edge="1" parent="WIyWlLk6GJQsqaUBKTNV-1" source="wrxFYw_ACkEng3B3rdSg-28">
          <mxGeometry relative="1" as="geometry">
            <mxPoint x="1130.0588235294117" y="769.9999999999998" as="targetPoint" />
          </mxGeometry>
        </mxCell>
        <mxCell id="wrxFYw_ACkEng3B3rdSg-32" value="否" style="edgeLabel;html=1;align=center;verticalAlign=middle;resizable=0;points=[];" vertex="1" connectable="0" parent="wrxFYw_ACkEng3B3rdSg-31">
          <mxGeometry x="0.1667" y="-3" relative="1" as="geometry">
            <mxPoint as="offset" />
          </mxGeometry>
        </mxCell>
        <mxCell id="wrxFYw_ACkEng3B3rdSg-35" value="" style="edgeStyle=orthogonalEdgeStyle;rounded=0;orthogonalLoop=1;jettySize=auto;html=1;" edge="1" parent="WIyWlLk6GJQsqaUBKTNV-1" source="wrxFYw_ACkEng3B3rdSg-28" target="wrxFYw_ACkEng3B3rdSg-34">
          <mxGeometry relative="1" as="geometry" />
        </mxCell>
        <mxCell id="wrxFYw_ACkEng3B3rdSg-28" value="发送是否成功" style="rhombus;whiteSpace=wrap;html=1;strokeWidth=2;" vertex="1" parent="WIyWlLk6GJQsqaUBKTNV-1">
          <mxGeometry x="620" y="460" width="80" height="80" as="geometry" />
        </mxCell>
        <mxCell id="wrxFYw_ACkEng3B3rdSg-37" value="" style="edgeStyle=orthogonalEdgeStyle;rounded=0;orthogonalLoop=1;jettySize=auto;html=1;" edge="1" parent="WIyWlLk6GJQsqaUBKTNV-1" source="wrxFYw_ACkEng3B3rdSg-34" target="wrxFYw_ACkEng3B3rdSg-36">
          <mxGeometry relative="1" as="geometry" />
        </mxCell>
        <mxCell id="wrxFYw_ACkEng3B3rdSg-34" value="开始接收UDP报文" style="whiteSpace=wrap;html=1;strokeWidth=2;" vertex="1" parent="WIyWlLk6GJQsqaUBKTNV-1">
          <mxGeometry x="600" y="630" width="120" height="60" as="geometry" />
        </mxCell>
        <mxCell id="wrxFYw_ACkEng3B3rdSg-38" style="edgeStyle=orthogonalEdgeStyle;rounded=0;orthogonalLoop=1;jettySize=auto;html=1;entryX=0;entryY=0.5;entryDx=0;entryDy=0;entryPerimeter=0;" edge="1" parent="WIyWlLk6GJQsqaUBKTNV-1" source="wrxFYw_ACkEng3B3rdSg-36" target="wrxFYw_ACkEng3B3rdSg-47">
          <mxGeometry relative="1" as="geometry">
            <mxPoint x="990" y="801" as="targetPoint" />
            <Array as="points">
              <mxPoint x="885" y="800" />
              <mxPoint x="1080" y="801" />
            </Array>
          </mxGeometry>
        </mxCell>
        <mxCell id="wrxFYw_ACkEng3B3rdSg-39" value="否" style="edgeLabel;html=1;align=center;verticalAlign=middle;resizable=0;points=[];" vertex="1" connectable="0" parent="wrxFYw_ACkEng3B3rdSg-38">
          <mxGeometry x="0.0051" relative="1" as="geometry">
            <mxPoint as="offset" />
          </mxGeometry>
        </mxCell>
        <mxCell id="wrxFYw_ACkEng3B3rdSg-41" value="" style="edgeStyle=orthogonalEdgeStyle;rounded=0;orthogonalLoop=1;jettySize=auto;html=1;" edge="1" parent="WIyWlLk6GJQsqaUBKTNV-1" source="wrxFYw_ACkEng3B3rdSg-36" target="wrxFYw_ACkEng3B3rdSg-40">
          <mxGeometry relative="1" as="geometry" />
        </mxCell>
        <mxCell id="wrxFYw_ACkEng3B3rdSg-36" value="是否成功接收报文" style="rhombus;whiteSpace=wrap;html=1;strokeWidth=2;" vertex="1" parent="WIyWlLk6GJQsqaUBKTNV-1">
          <mxGeometry x="620" y="760" width="80" height="80" as="geometry" />
        </mxCell>
        <mxCell id="wrxFYw_ACkEng3B3rdSg-43" value="" style="edgeStyle=orthogonalEdgeStyle;rounded=0;orthogonalLoop=1;jettySize=auto;html=1;entryX=0.5;entryY=0;entryDx=0;entryDy=0;entryPerimeter=0;" edge="1" parent="WIyWlLk6GJQsqaUBKTNV-1" source="wrxFYw_ACkEng3B3rdSg-40" target="wrxFYw_ACkEng3B3rdSg-44">
          <mxGeometry relative="1" as="geometry">
            <mxPoint x="660" y="1410" as="targetPoint" />
            <Array as="points">
              <mxPoint x="660" y="3430" />
            </Array>
          </mxGeometry>
        </mxCell>
        <mxCell id="wrxFYw_ACkEng3B3rdSg-40" value="关闭AirKiss，关闭BLE连接，进入修改名称页面" style="whiteSpace=wrap;html=1;strokeWidth=2;" vertex="1" parent="WIyWlLk6GJQsqaUBKTNV-1">
          <mxGeometry x="600" y="1000" width="120" height="60" as="geometry" />
        </mxCell>
        <mxCell id="wrxFYw_ACkEng3B3rdSg-44" value="结束" style="strokeWidth=2;html=1;shape=mxgraph.flowchart.terminator;whiteSpace=wrap;" vertex="1" parent="WIyWlLk6GJQsqaUBKTNV-1">
          <mxGeometry x="610" y="3440" width="100" height="60" as="geometry" />
        </mxCell>
        <mxCell id="wrxFYw_ACkEng3B3rdSg-53" style="edgeStyle=orthogonalEdgeStyle;rounded=0;orthogonalLoop=1;jettySize=auto;html=1;entryX=1;entryY=0.5;entryDx=0;entryDy=0;entryPerimeter=0;" edge="1" parent="WIyWlLk6GJQsqaUBKTNV-1" source="wrxFYw_ACkEng3B3rdSg-46" target="wrxFYw_ACkEng3B3rdSg-44">
          <mxGeometry relative="1" as="geometry">
            <Array as="points">
              <mxPoint x="1130" y="3460" />
            </Array>
          </mxGeometry>
        </mxCell>
        <mxCell id="wrxFYw_ACkEng3B3rdSg-46" value="停止AirKiss发送和接收UDP报文，前往连接失败界面" style="whiteSpace=wrap;html=1;strokeWidth=2;" vertex="1" parent="WIyWlLk6GJQsqaUBKTNV-1">
          <mxGeometry x="1070" y="930" width="120" height="60" as="geometry" />
        </mxCell>
        <mxCell id="wrxFYw_ACkEng3B3rdSg-49" style="edgeStyle=orthogonalEdgeStyle;rounded=0;orthogonalLoop=1;jettySize=auto;html=1;" edge="1" parent="WIyWlLk6GJQsqaUBKTNV-1" source="wrxFYw_ACkEng3B3rdSg-47" target="wrxFYw_ACkEng3B3rdSg-46">
          <mxGeometry relative="1" as="geometry" />
        </mxCell>
        <mxCell id="wrxFYw_ACkEng3B3rdSg-50" value="是" style="edgeLabel;html=1;align=center;verticalAlign=middle;resizable=0;points=[];" vertex="1" connectable="0" parent="wrxFYw_ACkEng3B3rdSg-49">
          <mxGeometry x="-0.0338" y="4" relative="1" as="geometry">
            <mxPoint as="offset" />
          </mxGeometry>
        </mxCell>
        <mxCell id="wrxFYw_ACkEng3B3rdSg-126" value="" style="edgeStyle=orthogonalEdgeStyle;rounded=0;orthogonalLoop=1;jettySize=auto;html=1;" edge="1" parent="WIyWlLk6GJQsqaUBKTNV-1" source="wrxFYw_ACkEng3B3rdSg-47" target="wrxFYw_ACkEng3B3rdSg-125">
          <mxGeometry relative="1" as="geometry" />
        </mxCell>
        <mxCell id="wrxFYw_ACkEng3B3rdSg-47" value="BLE和AirKiss是否都失败" style="strokeWidth=2;html=1;shape=mxgraph.flowchart.decision;whiteSpace=wrap;" vertex="1" parent="WIyWlLk6GJQsqaUBKTNV-1">
          <mxGeometry x="1080" y="750" width="100" height="100" as="geometry" />
        </mxCell>
        <mxCell id="wrxFYw_ACkEng3B3rdSg-124" value="" style="edgeStyle=orthogonalEdgeStyle;rounded=0;orthogonalLoop=1;jettySize=auto;html=1;" edge="1" parent="WIyWlLk6GJQsqaUBKTNV-1" source="wrxFYw_ACkEng3B3rdSg-54" target="wrxFYw_ACkEng3B3rdSg-123">
          <mxGeometry relative="1" as="geometry" />
        </mxCell>
        <mxCell id="wrxFYw_ACkEng3B3rdSg-54" value="BLE和AirKiss是否都失败" style="strokeWidth=2;html=1;shape=mxgraph.flowchart.decision;whiteSpace=wrap;" vertex="1" parent="WIyWlLk6GJQsqaUBKTNV-1">
          <mxGeometry x="-560" y="590" width="100" height="100" as="geometry" />
        </mxCell>
        <mxCell id="wrxFYw_ACkEng3B3rdSg-66" value="" style="edgeStyle=orthogonalEdgeStyle;rounded=0;orthogonalLoop=1;jettySize=auto;html=1;" edge="1" parent="WIyWlLk6GJQsqaUBKTNV-1" source="wrxFYw_ACkEng3B3rdSg-56" target="wrxFYw_ACkEng3B3rdSg-65">
          <mxGeometry relative="1" as="geometry" />
        </mxCell>
        <mxCell id="wrxFYw_ACkEng3B3rdSg-71" value="" style="edgeStyle=orthogonalEdgeStyle;rounded=0;orthogonalLoop=1;jettySize=auto;html=1;" edge="1" parent="WIyWlLk6GJQsqaUBKTNV-1" source="wrxFYw_ACkEng3B3rdSg-56" target="wrxFYw_ACkEng3B3rdSg-70">
          <mxGeometry relative="1" as="geometry" />
        </mxCell>
        <mxCell id="wrxFYw_ACkEng3B3rdSg-72" value="是" style="edgeLabel;html=1;align=center;verticalAlign=middle;resizable=0;points=[];" vertex="1" connectable="0" parent="wrxFYw_ACkEng3B3rdSg-71">
          <mxGeometry x="-0.3634" y="1" relative="1" as="geometry">
            <mxPoint as="offset" />
          </mxGeometry>
        </mxCell>
        <mxCell id="wrxFYw_ACkEng3B3rdSg-56" value="是否有wifi_scs或cchip_stroy设备" style="rhombus;whiteSpace=wrap;html=1;strokeWidth=2;" vertex="1" parent="WIyWlLk6GJQsqaUBKTNV-1">
          <mxGeometry x="220" y="600" width="80" height="80" as="geometry" />
        </mxCell>
        <mxCell id="wrxFYw_ACkEng3B3rdSg-67" style="edgeStyle=orthogonalEdgeStyle;rounded=0;orthogonalLoop=1;jettySize=auto;html=1;entryX=0;entryY=0.75;entryDx=0;entryDy=0;" edge="1" parent="WIyWlLk6GJQsqaUBKTNV-1" source="wrxFYw_ACkEng3B3rdSg-65" target="wrxFYw_ACkEng3B3rdSg-22">
          <mxGeometry relative="1" as="geometry">
            <Array as="points">
              <mxPoint x="80" y="515" />
            </Array>
          </mxGeometry>
        </mxCell>
        <mxCell id="wrxFYw_ACkEng3B3rdSg-68" value="否" style="edgeLabel;html=1;align=center;verticalAlign=middle;resizable=0;points=[];" vertex="1" connectable="0" parent="wrxFYw_ACkEng3B3rdSg-67">
          <mxGeometry x="-0.3268" relative="1" as="geometry">
            <mxPoint as="offset" />
          </mxGeometry>
        </mxCell>
        <mxCell id="wrxFYw_ACkEng3B3rdSg-69" style="edgeStyle=orthogonalEdgeStyle;rounded=0;orthogonalLoop=1;jettySize=auto;html=1;entryX=1;entryY=0.5;entryDx=0;entryDy=0;entryPerimeter=0;" edge="1" parent="WIyWlLk6GJQsqaUBKTNV-1" source="wrxFYw_ACkEng3B3rdSg-65" target="wrxFYw_ACkEng3B3rdSg-54">
          <mxGeometry relative="1" as="geometry" />
        </mxCell>
        <mxCell id="wrxFYw_ACkEng3B3rdSg-65" value="是" style="rhombus;whiteSpace=wrap;html=1;strokeWidth=2;" vertex="1" parent="WIyWlLk6GJQsqaUBKTNV-1">
          <mxGeometry x="40" y="600" width="80" height="80" as="geometry" />
        </mxCell>
        <mxCell id="wrxFYw_ACkEng3B3rdSg-74" value="" style="edgeStyle=orthogonalEdgeStyle;rounded=0;orthogonalLoop=1;jettySize=auto;html=1;" edge="1" parent="WIyWlLk6GJQsqaUBKTNV-1" source="wrxFYw_ACkEng3B3rdSg-70" target="wrxFYw_ACkEng3B3rdSg-73">
          <mxGeometry relative="1" as="geometry" />
        </mxCell>
        <mxCell id="wrxFYw_ACkEng3B3rdSg-70" value="连接BLE设备" style="whiteSpace=wrap;html=1;strokeWidth=2;" vertex="1" parent="WIyWlLk6GJQsqaUBKTNV-1">
          <mxGeometry x="200" y="770" width="120" height="60" as="geometry" />
        </mxCell>
        <mxCell id="wrxFYw_ACkEng3B3rdSg-75" style="edgeStyle=orthogonalEdgeStyle;rounded=0;orthogonalLoop=1;jettySize=auto;html=1;entryX=0.5;entryY=1;entryDx=0;entryDy=0;entryPerimeter=0;" edge="1" parent="WIyWlLk6GJQsqaUBKTNV-1" source="wrxFYw_ACkEng3B3rdSg-73" target="wrxFYw_ACkEng3B3rdSg-54">
          <mxGeometry relative="1" as="geometry" />
        </mxCell>
        <mxCell id="wrxFYw_ACkEng3B3rdSg-76" value="否" style="edgeLabel;html=1;align=center;verticalAlign=middle;resizable=0;points=[];" vertex="1" connectable="0" parent="wrxFYw_ACkEng3B3rdSg-75">
          <mxGeometry x="-0.1592" y="4" relative="1" as="geometry">
            <mxPoint as="offset" />
          </mxGeometry>
        </mxCell>
        <mxCell id="wrxFYw_ACkEng3B3rdSg-78" value="" style="edgeStyle=orthogonalEdgeStyle;rounded=0;orthogonalLoop=1;jettySize=auto;html=1;" edge="1" parent="WIyWlLk6GJQsqaUBKTNV-1" source="wrxFYw_ACkEng3B3rdSg-73">
          <mxGeometry relative="1" as="geometry">
            <mxPoint x="260" y="1070" as="targetPoint" />
          </mxGeometry>
        </mxCell>
        <mxCell id="wrxFYw_ACkEng3B3rdSg-79" value="是" style="edgeLabel;html=1;align=center;verticalAlign=middle;resizable=0;points=[];" vertex="1" connectable="0" parent="wrxFYw_ACkEng3B3rdSg-78">
          <mxGeometry x="-0.1778" y="-2" relative="1" as="geometry">
            <mxPoint as="offset" />
          </mxGeometry>
        </mxCell>
        <mxCell id="wrxFYw_ACkEng3B3rdSg-73" value="是否连接成功" style="rhombus;whiteSpace=wrap;html=1;strokeWidth=2;" vertex="1" parent="WIyWlLk6GJQsqaUBKTNV-1">
          <mxGeometry x="220" y="900" width="80" height="80" as="geometry" />
        </mxCell>
        <mxCell id="wrxFYw_ACkEng3B3rdSg-82" value="" style="edgeStyle=orthogonalEdgeStyle;rounded=0;orthogonalLoop=1;jettySize=auto;html=1;" edge="1" parent="WIyWlLk6GJQsqaUBKTNV-1" source="wrxFYw_ACkEng3B3rdSg-80" target="wrxFYw_ACkEng3B3rdSg-81">
          <mxGeometry relative="1" as="geometry" />
        </mxCell>
        <mxCell id="wrxFYw_ACkEng3B3rdSg-85" value="否" style="edgeLabel;html=1;align=center;verticalAlign=middle;resizable=0;points=[];" vertex="1" connectable="0" parent="wrxFYw_ACkEng3B3rdSg-82">
          <mxGeometry x="-0.14" y="3" relative="1" as="geometry">
            <mxPoint as="offset" />
          </mxGeometry>
        </mxCell>
        <mxCell id="wrxFYw_ACkEng3B3rdSg-80" value="是否配网完成" style="strokeWidth=2;html=1;shape=mxgraph.flowchart.decision;whiteSpace=wrap;" vertex="1" parent="WIyWlLk6GJQsqaUBKTNV-1">
          <mxGeometry x="210" y="1069" width="100" height="100" as="geometry" />
        </mxCell>
        <mxCell id="wrxFYw_ACkEng3B3rdSg-87" value="" style="edgeStyle=orthogonalEdgeStyle;rounded=0;orthogonalLoop=1;jettySize=auto;html=1;" edge="1" parent="WIyWlLk6GJQsqaUBKTNV-1" source="wrxFYw_ACkEng3B3rdSg-81" target="wrxFYw_ACkEng3B3rdSg-86">
          <mxGeometry relative="1" as="geometry" />
        </mxCell>
        <mxCell id="wrxFYw_ACkEng3B3rdSg-81" value="开始扫描服务" style="whiteSpace=wrap;html=1;strokeWidth=2;" vertex="1" parent="WIyWlLk6GJQsqaUBKTNV-1">
          <mxGeometry x="200" y="1269" width="120" height="60" as="geometry" />
        </mxCell>
        <mxCell id="wrxFYw_ACkEng3B3rdSg-89" value="" style="edgeStyle=orthogonalEdgeStyle;rounded=0;orthogonalLoop=1;jettySize=auto;html=1;" edge="1" parent="WIyWlLk6GJQsqaUBKTNV-1" source="wrxFYw_ACkEng3B3rdSg-86" target="wrxFYw_ACkEng3B3rdSg-88">
          <mxGeometry relative="1" as="geometry" />
        </mxCell>
        <mxCell id="wrxFYw_ACkEng3B3rdSg-90" value="是" style="edgeLabel;html=1;align=center;verticalAlign=middle;resizable=0;points=[];" vertex="1" connectable="0" parent="wrxFYw_ACkEng3B3rdSg-89">
          <mxGeometry x="-0.7167" y="1" relative="1" as="geometry">
            <mxPoint as="offset" />
          </mxGeometry>
        </mxCell>
        <mxCell id="wrxFYw_ACkEng3B3rdSg-91" style="edgeStyle=orthogonalEdgeStyle;rounded=0;orthogonalLoop=1;jettySize=auto;html=1;" edge="1" parent="WIyWlLk6GJQsqaUBKTNV-1" source="wrxFYw_ACkEng3B3rdSg-86">
          <mxGeometry relative="1" as="geometry">
            <mxPoint x="-510" y="690" as="targetPoint" />
          </mxGeometry>
        </mxCell>
        <mxCell id="wrxFYw_ACkEng3B3rdSg-92" value="否" style="edgeLabel;html=1;align=center;verticalAlign=middle;resizable=0;points=[];" vertex="1" connectable="0" parent="wrxFYw_ACkEng3B3rdSg-91">
          <mxGeometry x="-0.587" y="6" relative="1" as="geometry">
            <mxPoint as="offset" />
          </mxGeometry>
        </mxCell>
        <mxCell id="wrxFYw_ACkEng3B3rdSg-86" value="是否成功发现服务" style="rhombus;whiteSpace=wrap;html=1;strokeWidth=2;" vertex="1" parent="WIyWlLk6GJQsqaUBKTNV-1">
          <mxGeometry x="220" y="1399" width="80" height="80" as="geometry" />
        </mxCell>
        <mxCell id="wrxFYw_ACkEng3B3rdSg-93" style="edgeStyle=orthogonalEdgeStyle;rounded=0;orthogonalLoop=1;jettySize=auto;html=1;entryX=0.5;entryY=1;entryDx=0;entryDy=0;entryPerimeter=0;" edge="1" parent="WIyWlLk6GJQsqaUBKTNV-1" source="wrxFYw_ACkEng3B3rdSg-88" target="wrxFYw_ACkEng3B3rdSg-54">
          <mxGeometry relative="1" as="geometry" />
        </mxCell>
        <mxCell id="wrxFYw_ACkEng3B3rdSg-94" value="否" style="edgeLabel;html=1;align=center;verticalAlign=middle;resizable=0;points=[];" vertex="1" connectable="0" parent="wrxFYw_ACkEng3B3rdSg-93">
          <mxGeometry x="-0.5847" y="-2" relative="1" as="geometry">
            <mxPoint as="offset" />
          </mxGeometry>
        </mxCell>
        <mxCell id="wrxFYw_ACkEng3B3rdSg-96" value="" style="edgeStyle=orthogonalEdgeStyle;rounded=0;orthogonalLoop=1;jettySize=auto;html=1;" edge="1" parent="WIyWlLk6GJQsqaUBKTNV-1" source="wrxFYw_ACkEng3B3rdSg-88" target="wrxFYw_ACkEng3B3rdSg-95">
          <mxGeometry relative="1" as="geometry" />
        </mxCell>
        <mxCell id="wrxFYw_ACkEng3B3rdSg-88" value="是否找到配网服务" style="rhombus;whiteSpace=wrap;html=1;strokeWidth=2;" vertex="1" parent="WIyWlLk6GJQsqaUBKTNV-1">
          <mxGeometry x="220" y="1559" width="80" height="80" as="geometry" />
        </mxCell>
        <mxCell id="wrxFYw_ACkEng3B3rdSg-98" value="" style="edgeStyle=orthogonalEdgeStyle;rounded=0;orthogonalLoop=1;jettySize=auto;html=1;" edge="1" parent="WIyWlLk6GJQsqaUBKTNV-1" source="wrxFYw_ACkEng3B3rdSg-95" target="wrxFYw_ACkEng3B3rdSg-97">
          <mxGeometry relative="1" as="geometry" />
        </mxCell>
        <mxCell id="wrxFYw_ACkEng3B3rdSg-95" value="尝试获取写入通道和通知通道的UUID" style="whiteSpace=wrap;html=1;strokeWidth=2;" vertex="1" parent="WIyWlLk6GJQsqaUBKTNV-1">
          <mxGeometry x="200" y="1729" width="120" height="60" as="geometry" />
        </mxCell>
        <mxCell id="wrxFYw_ACkEng3B3rdSg-100" value="" style="edgeStyle=orthogonalEdgeStyle;rounded=0;orthogonalLoop=1;jettySize=auto;html=1;" edge="1" parent="WIyWlLk6GJQsqaUBKTNV-1" source="wrxFYw_ACkEng3B3rdSg-97" target="wrxFYw_ACkEng3B3rdSg-99">
          <mxGeometry relative="1" as="geometry" />
        </mxCell>
        <mxCell id="wrxFYw_ACkEng3B3rdSg-101" style="edgeStyle=orthogonalEdgeStyle;rounded=0;orthogonalLoop=1;jettySize=auto;html=1;" edge="1" parent="WIyWlLk6GJQsqaUBKTNV-1" source="wrxFYw_ACkEng3B3rdSg-97">
          <mxGeometry relative="1" as="geometry">
            <mxPoint x="-510" y="690" as="targetPoint" />
          </mxGeometry>
        </mxCell>
        <mxCell id="wrxFYw_ACkEng3B3rdSg-102" value="否" style="edgeLabel;html=1;align=center;verticalAlign=middle;resizable=0;points=[];" vertex="1" connectable="0" parent="wrxFYw_ACkEng3B3rdSg-101">
          <mxGeometry x="-0.6575" y="-4" relative="1" as="geometry">
            <mxPoint as="offset" />
          </mxGeometry>
        </mxCell>
        <mxCell id="wrxFYw_ACkEng3B3rdSg-97" value="是否获取到写入通道" style="rhombus;whiteSpace=wrap;html=1;strokeWidth=2;" vertex="1" parent="WIyWlLk6GJQsqaUBKTNV-1">
          <mxGeometry x="220" y="1859" width="80" height="80" as="geometry" />
        </mxCell>
        <mxCell id="wrxFYw_ACkEng3B3rdSg-104" style="edgeStyle=orthogonalEdgeStyle;rounded=0;orthogonalLoop=1;jettySize=auto;html=1;entryX=0.5;entryY=0;entryDx=0;entryDy=0;" edge="1" parent="WIyWlLk6GJQsqaUBKTNV-1" source="wrxFYw_ACkEng3B3rdSg-99" target="wrxFYw_ACkEng3B3rdSg-103">
          <mxGeometry relative="1" as="geometry">
            <mxPoint x="260" y="2130" as="targetPoint" />
          </mxGeometry>
        </mxCell>
        <mxCell id="wrxFYw_ACkEng3B3rdSg-99" value="写入特征值(Wifi和密码)" style="whiteSpace=wrap;html=1;strokeWidth=2;" vertex="1" parent="WIyWlLk6GJQsqaUBKTNV-1">
          <mxGeometry x="200" y="2029" width="120" height="60" as="geometry" />
        </mxCell>
        <mxCell id="wrxFYw_ACkEng3B3rdSg-106" value="" style="edgeStyle=orthogonalEdgeStyle;rounded=0;orthogonalLoop=1;jettySize=auto;html=1;" edge="1" parent="WIyWlLk6GJQsqaUBKTNV-1" source="wrxFYw_ACkEng3B3rdSg-103">
          <mxGeometry relative="1" as="geometry">
            <mxPoint x="260" y="2329.9999999999995" as="targetPoint" />
          </mxGeometry>
        </mxCell>
        <mxCell id="wrxFYw_ACkEng3B3rdSg-103" value="获取写入数据回调" style="rounded=0;whiteSpace=wrap;html=1;" vertex="1" parent="WIyWlLk6GJQsqaUBKTNV-1">
          <mxGeometry x="200" y="2190" width="120" height="60" as="geometry" />
        </mxCell>
        <mxCell id="wrxFYw_ACkEng3B3rdSg-108" style="edgeStyle=orthogonalEdgeStyle;rounded=0;orthogonalLoop=1;jettySize=auto;html=1;" edge="1" parent="WIyWlLk6GJQsqaUBKTNV-1" source="wrxFYw_ACkEng3B3rdSg-107">
          <mxGeometry relative="1" as="geometry">
            <mxPoint x="-510" y="690" as="targetPoint" />
          </mxGeometry>
        </mxCell>
        <mxCell id="wrxFYw_ACkEng3B3rdSg-110" value="" style="edgeStyle=orthogonalEdgeStyle;rounded=0;orthogonalLoop=1;jettySize=auto;html=1;" edge="1" parent="WIyWlLk6GJQsqaUBKTNV-1" source="wrxFYw_ACkEng3B3rdSg-107" target="wrxFYw_ACkEng3B3rdSg-109">
          <mxGeometry relative="1" as="geometry" />
        </mxCell>
        <mxCell id="wrxFYw_ACkEng3B3rdSg-107" value="写入数据是否完成" style="rhombus;whiteSpace=wrap;html=1;" vertex="1" parent="WIyWlLk6GJQsqaUBKTNV-1">
          <mxGeometry x="220" y="2330" width="80" height="80" as="geometry" />
        </mxCell>
        <mxCell id="wrxFYw_ACkEng3B3rdSg-112" value="" style="edgeStyle=orthogonalEdgeStyle;rounded=0;orthogonalLoop=1;jettySize=auto;html=1;" edge="1" parent="WIyWlLk6GJQsqaUBKTNV-1" source="wrxFYw_ACkEng3B3rdSg-109" target="wrxFYw_ACkEng3B3rdSg-111">
          <mxGeometry relative="1" as="geometry" />
        </mxCell>
        <mxCell id="wrxFYw_ACkEng3B3rdSg-109" value="通知BLE设备联网后通知" style="whiteSpace=wrap;html=1;" vertex="1" parent="WIyWlLk6GJQsqaUBKTNV-1">
          <mxGeometry x="200" y="2500" width="120" height="60" as="geometry" />
        </mxCell>
        <mxCell id="wrxFYw_ACkEng3B3rdSg-114" style="edgeStyle=orthogonalEdgeStyle;rounded=0;orthogonalLoop=1;jettySize=auto;html=1;" edge="1" parent="WIyWlLk6GJQsqaUBKTNV-1" source="wrxFYw_ACkEng3B3rdSg-111" target="wrxFYw_ACkEng3B3rdSg-113">
          <mxGeometry relative="1" as="geometry" />
        </mxCell>
        <mxCell id="wrxFYw_ACkEng3B3rdSg-111" value="接收到BLE设备联网后的通知" style="whiteSpace=wrap;html=1;" vertex="1" parent="WIyWlLk6GJQsqaUBKTNV-1">
          <mxGeometry x="200" y="2640" width="120" height="60" as="geometry" />
        </mxCell>
        <mxCell id="wrxFYw_ACkEng3B3rdSg-116" value="" style="edgeStyle=orthogonalEdgeStyle;rounded=0;orthogonalLoop=1;jettySize=auto;html=1;" edge="1" parent="WIyWlLk6GJQsqaUBKTNV-1" source="wrxFYw_ACkEng3B3rdSg-113" target="wrxFYw_ACkEng3B3rdSg-115">
          <mxGeometry relative="1" as="geometry" />
        </mxCell>
        <mxCell id="wrxFYw_ACkEng3B3rdSg-117" style="edgeStyle=orthogonalEdgeStyle;rounded=0;orthogonalLoop=1;jettySize=auto;html=1;" edge="1" parent="WIyWlLk6GJQsqaUBKTNV-1" source="wrxFYw_ACkEng3B3rdSg-113">
          <mxGeometry relative="1" as="geometry">
            <mxPoint x="-510" y="690" as="targetPoint" />
          </mxGeometry>
        </mxCell>
        <mxCell id="wrxFYw_ACkEng3B3rdSg-113" value="配网是否成功(判断依据为数据包长度是否大于7)" style="rhombus;whiteSpace=wrap;html=1;" vertex="1" parent="WIyWlLk6GJQsqaUBKTNV-1">
          <mxGeometry x="220" y="2780" width="80" height="80" as="geometry" />
        </mxCell>
        <mxCell id="wrxFYw_ACkEng3B3rdSg-118" style="edgeStyle=orthogonalEdgeStyle;rounded=0;orthogonalLoop=1;jettySize=auto;html=1;entryX=0;entryY=0.5;entryDx=0;entryDy=0;entryPerimeter=0;" edge="1" parent="WIyWlLk6GJQsqaUBKTNV-1" source="wrxFYw_ACkEng3B3rdSg-115" target="wrxFYw_ACkEng3B3rdSg-44">
          <mxGeometry relative="1" as="geometry">
            <Array as="points">
              <mxPoint x="260" y="3470" />
            </Array>
          </mxGeometry>
        </mxCell>
        <mxCell id="wrxFYw_ACkEng3B3rdSg-115" value="配网成功，关闭配网，进入命名页面" style="whiteSpace=wrap;html=1;" vertex="1" parent="WIyWlLk6GJQsqaUBKTNV-1">
          <mxGeometry x="200" y="2950" width="120" height="60" as="geometry" />
        </mxCell>
        <mxCell id="wrxFYw_ACkEng3B3rdSg-123" value="继续进行AirKiss配网" style="whiteSpace=wrap;html=1;strokeWidth=2;" vertex="1" parent="WIyWlLk6GJQsqaUBKTNV-1">
          <mxGeometry x="-570" y="430" width="120" height="60" as="geometry" />
        </mxCell>
        <mxCell id="wrxFYw_ACkEng3B3rdSg-125" value="继续进行BLE配网" style="whiteSpace=wrap;html=1;strokeWidth=2;" vertex="1" parent="WIyWlLk6GJQsqaUBKTNV-1">
          <mxGeometry x="1250" y="770" width="120" height="60" as="geometry" />
        </mxCell>
      </root>
    </mxGraphModel>
  </diagram>
</mxfile>
